<?xml version="1.0" encoding="UTF-8" standalone="no"?>
<!-- Created with Inkscape (http://www.inkscape.org/) -->

<svg
   xmlns:dc="http://purl.org/dc/elements/1.1/"
   xmlns:cc="http://creativecommons.org/ns#"
   xmlns:rdf="http://www.w3.org/1999/02/22-rdf-syntax-ns#"
   xmlns:svg="http://www.w3.org/2000/svg"
   xmlns="http://www.w3.org/2000/svg"
   xmlns:sodipodi="http://sodipodi.sourceforge.net/DTD/sodipodi-0.dtd"
   xmlns:inkscape="http://www.inkscape.org/namespaces/inkscape"
   width="342.08817"
   height="371.5827"
   id="svg3329"
   version="1.1"
   inkscape:version="0.48.4 r9939"
   sodipodi:docname="12gonA.svg">
  <defs
     id="defs3331" />
  <sodipodi:namedview
     id="base"
     pagecolor="#ffffff"
     bordercolor="#666666"
     borderopacity="1.0"
     inkscape:pageopacity="0.0"
     inkscape:pageshadow="2"
     inkscape:zoom="1.4"
     inkscape:cx="271.77534"
     inkscape:cy="187.52341"
     inkscape:document-units="px"
     inkscape:current-layer="layer1"
     showgrid="true"
     inkscape:snap-grids="false"
     inkscape:object-nodes="true"
     inkscape:object-paths="true"
     inkscape:snap-intersection-paths="false"
     inkscape:snap-object-midpoints="true"
     inkscape:snap-smooth-nodes="true"
     inkscape:snap-center="true"
     fit-margin-top="0"
     fit-margin-left="0"
     fit-margin-right="0"
     fit-margin-bottom="0"
     inkscape:window-width="1280"
     inkscape:window-height="782"
     inkscape:window-x="0"
     inkscape:window-y="0"
     inkscape:window-maximized="1">
    <inkscape:grid
       type="xygrid"
       id="grid3337"
       empspacing="5"
       visible="true"
       enabled="true"
       snapvisiblegridlinesonly="true"
       originx="-88.955919px"
       originy="-454.20865px" />
  </sodipodi:namedview>
  <metadata
     id="metadata3334">
    <rdf:RDF>
      <cc:Work
         rdf:about="">
        <dc:format>image/svg+xml</dc:format>
        <dc:type
           rdf:resource="http://purl.org/dc/dcmitype/StillImage" />
        <dc:title />
      </cc:Work>
    </rdf:RDF>
  </metadata>
  <g
     inkscape:label="Layer 1"
     inkscape:groupmode="layer"
     id="layer1"
     transform="translate(-88.955919,-226.57082)">
    <g
       id="g3383"
       transform="matrix(0.54952342,-0.83547831,0.83547831,0.54952342,-305.64651,588.67638)">
      <path
         style="fill:none;stroke:#000000;stroke-width:1px;stroke-linecap:butt;stroke-linejoin:miter;stroke-opacity:1"
         d="m 450,235.93361 19.23776,-39.89136"
         id="path3385"
         inkscape:connector-curvature="0" />
      <path
         inkscape:connector-curvature="0"
         id="path3387"
         d="M 450,235.93361 430.76224,196.04225"
         style="fill:none;stroke:#000000;stroke-width:1px;stroke-linecap:butt;stroke-linejoin:miter;stroke-opacity:1" />
      <path
         sodipodi:type="arc"
         style="fill:#5a3733;fill-opacity:1;stroke:#000000;stroke-width:1.79999995;stroke-linecap:butt;stroke-linejoin:miter;stroke-miterlimit:4;stroke-opacity:1;stroke-dasharray:none;stroke-dashoffset:0"
         id="path3389"
         sodipodi:cx="105"
         sodipodi:cy="227.36218"
         sodipodi:rx="5"
         sodipodi:ry="5"
         d="m 110,227.36218 c 0,2.76143 -2.23858,5 -5,5 -2.76142,0 -5,-2.23857 -5,-5 0,-2.76142 2.23858,-5 5,-5 2.76142,0 5,2.23858 5,5 z"
         transform="translate(364.23776,-31.319929)" />
      <path
         transform="translate(325.76224,-31.31993)"
         d="m 110,227.36218 c 0,2.76143 -2.23858,5 -5,5 -2.76142,0 -5,-2.23857 -5,-5 0,-2.76142 2.23858,-5 5,-5 2.76142,0 5,2.23858 5,5 z"
         sodipodi:ry="5"
         sodipodi:rx="5"
         sodipodi:cy="227.36218"
         sodipodi:cx="105"
         id="path3391"
         style="fill:#5a3733;fill-opacity:1;stroke:#000000;stroke-width:1.79999995;stroke-linecap:butt;stroke-linejoin:miter;stroke-miterlimit:4;stroke-opacity:1;stroke-dasharray:none;stroke-dashoffset:0"
         sodipodi:type="arc" />
    </g>
    <g
       transform="matrix(0.54952342,0.83547831,0.83547831,-0.54952342,-305.64651,236.04799)"
       id="g3393">
      <path
         inkscape:connector-curvature="0"
         id="path3395"
         d="m 450,235.93361 19.23776,-39.89136"
         style="fill:none;stroke:#000000;stroke-width:1px;stroke-linecap:butt;stroke-linejoin:miter;stroke-opacity:1" />
      <path
         style="fill:none;stroke:#000000;stroke-width:1px;stroke-linecap:butt;stroke-linejoin:miter;stroke-opacity:1"
         d="M 450,235.93361 430.76224,196.04225"
         id="path3397"
         inkscape:connector-curvature="0" />
      <path
         transform="translate(364.23776,-31.319929)"
         d="m 110,227.36218 c 0,2.76143 -2.23858,5 -5,5 -2.76142,0 -5,-2.23857 -5,-5 0,-2.76142 2.23858,-5 5,-5 2.76142,0 5,2.23858 5,5 z"
         sodipodi:ry="5"
         sodipodi:rx="5"
         sodipodi:cy="227.36218"
         sodipodi:cx="105"
         id="path3399"
         style="fill:#5a3733;fill-opacity:1;stroke:#000000;stroke-width:1.79999995;stroke-linecap:butt;stroke-linejoin:miter;stroke-miterlimit:4;stroke-opacity:1;stroke-dasharray:none;stroke-dashoffset:0"
         sodipodi:type="arc" />
      <path
         sodipodi:type="arc"
         style="fill:#5a3733;fill-opacity:1;stroke:#000000;stroke-width:1.79999995;stroke-linecap:butt;stroke-linejoin:miter;stroke-miterlimit:4;stroke-opacity:1;stroke-dasharray:none;stroke-dashoffset:0"
         id="path3401"
         sodipodi:cx="105"
         sodipodi:cy="227.36218"
         sodipodi:rx="5"
         sodipodi:ry="5"
         d="m 110,227.36218 c 0,2.76143 -2.23858,5 -5,5 -2.76142,0 -5,-2.23857 -5,-5 0,-2.76142 2.23858,-5 5,-5 2.76142,0 5,2.23858 5,5 z"
         transform="translate(325.76224,-31.31993)" />
    </g>
    <g
       id="g3413"
       transform="matrix(-0.54952342,0.83547831,-0.83547831,-0.54952342,825.64651,236.04799)">
      <path
         style="fill:none;stroke:#000000;stroke-width:1px;stroke-linecap:butt;stroke-linejoin:miter;stroke-opacity:1"
         d="m 450,235.93361 19.23776,-39.89136"
         id="path3415"
         inkscape:connector-curvature="0" />
      <path
         inkscape:connector-curvature="0"
         id="path3417"
         d="M 450,235.93361 430.76224,196.04225"
         style="fill:none;stroke:#000000;stroke-width:1px;stroke-linecap:butt;stroke-linejoin:miter;stroke-opacity:1" />
      <path
         sodipodi:type="arc"
         style="fill:#5a3733;fill-opacity:1;stroke:#000000;stroke-width:1.79999995;stroke-linecap:butt;stroke-linejoin:miter;stroke-miterlimit:4;stroke-opacity:1;stroke-dasharray:none;stroke-dashoffset:0"
         id="path3419"
         sodipodi:cx="105"
         sodipodi:cy="227.36218"
         sodipodi:rx="5"
         sodipodi:ry="5"
         d="m 110,227.36218 c 0,2.76143 -2.23858,5 -5,5 -2.76142,0 -5,-2.23857 -5,-5 0,-2.76142 2.23858,-5 5,-5 2.76142,0 5,2.23858 5,5 z"
         transform="translate(364.23776,-31.319929)" />
      <path
         transform="translate(325.76224,-31.31993)"
         d="m 110,227.36218 c 0,2.76143 -2.23858,5 -5,5 -2.76142,0 -5,-2.23857 -5,-5 0,-2.76142 2.23858,-5 5,-5 2.76142,0 5,2.23858 5,5 z"
         sodipodi:ry="5"
         sodipodi:rx="5"
         sodipodi:cy="227.36218"
         sodipodi:cx="105"
         id="path3421"
         style="fill:#5a3733;fill-opacity:1;stroke:#000000;stroke-width:1.79999995;stroke-linecap:butt;stroke-linejoin:miter;stroke-miterlimit:4;stroke-opacity:1;stroke-dasharray:none;stroke-dashoffset:0"
         sodipodi:type="arc" />
    </g>
    <g
       id="g3124"
       transform="matrix(1,0,0,-1,-190,788.29579)">
      <path
         style="fill:none;stroke:#000000;stroke-width:1px;stroke-linecap:butt;stroke-linejoin:miter;stroke-opacity:1"
         d="m 450,235.93361 19.23776,-39.89136"
         id="path3116"
         inkscape:connector-curvature="0" />
      <path
         inkscape:connector-curvature="0"
         id="path3118"
         d="M 450,235.93361 430.76224,196.04225"
         style="fill:none;stroke:#000000;stroke-width:1px;stroke-linecap:butt;stroke-linejoin:miter;stroke-opacity:1" />
      <path
         sodipodi:type="arc"
         style="fill:#5a3733;fill-opacity:1;stroke:#000000;stroke-width:1.79999995;stroke-linecap:butt;stroke-linejoin:miter;stroke-miterlimit:4;stroke-opacity:1;stroke-dasharray:none;stroke-dashoffset:0"
         id="path3120"
         sodipodi:cx="105"
         sodipodi:cy="227.36218"
         sodipodi:rx="5"
         sodipodi:ry="5"
         d="m 110,227.36218 c 0,2.76143 -2.23858,5 -5,5 -2.76142,0 -5,-2.23857 -5,-5 0,-2.76142 2.23858,-5 5,-5 2.76142,0 5,2.23858 5,5 z"
         transform="translate(364.23776,-31.319929)" />
      <path
         transform="translate(325.76224,-31.31993)"
         d="m 110,227.36218 c 0,2.76143 -2.23858,5 -5,5 -2.76142,0 -5,-2.23857 -5,-5 0,-2.76142 2.23858,-5 5,-5 2.76142,0 5,2.23858 5,5 z"
         sodipodi:ry="5"
         sodipodi:rx="5"
         sodipodi:cy="227.36218"
         sodipodi:cx="105"
         id="path3122"
         style="fill:#5a3733;fill-opacity:1;stroke:#000000;stroke-width:1.79999995;stroke-linecap:butt;stroke-linejoin:miter;stroke-miterlimit:4;stroke-opacity:1;stroke-dasharray:none;stroke-dashoffset:0"
         sodipodi:type="arc" />
    </g>
    <g
       transform="matrix(-0.54952342,-0.83547831,-0.83547831,0.54952342,825.6465,588.67638)"
       id="g3150">
      <path
         inkscape:connector-curvature="0"
         id="path3152"
         d="m 450,235.93361 19.23776,-39.89136"
         style="fill:none;stroke:#000000;stroke-width:1px;stroke-linecap:butt;stroke-linejoin:miter;stroke-opacity:1" />
      <path
         style="fill:none;stroke:#000000;stroke-width:1px;stroke-linecap:butt;stroke-linejoin:miter;stroke-opacity:1"
         d="M 450,235.93361 430.76224,196.04225"
         id="path3154"
         inkscape:connector-curvature="0" />
      <path
         transform="translate(364.23776,-31.319929)"
         d="m 110,227.36218 c 0,2.76143 -2.23858,5 -5,5 -2.76142,0 -5,-2.23857 -5,-5 0,-2.76142 2.23858,-5 5,-5 2.76142,0 5,2.23858 5,5 z"
         sodipodi:ry="5"
         sodipodi:rx="5"
         sodipodi:cy="227.36218"
         sodipodi:cx="105"
         id="path3156"
         style="fill:#5a3733;fill-opacity:1;stroke:#000000;stroke-width:1.79999995;stroke-linecap:butt;stroke-linejoin:miter;stroke-miterlimit:4;stroke-opacity:1;stroke-dasharray:none;stroke-dashoffset:0"
         sodipodi:type="arc" />
      <path
         sodipodi:type="arc"
         style="fill:#5a3733;fill-opacity:1;stroke:#000000;stroke-width:1.79999995;stroke-linecap:butt;stroke-linejoin:miter;stroke-miterlimit:4;stroke-opacity:1;stroke-dasharray:none;stroke-dashoffset:0"
         id="path3158"
         sodipodi:cx="105"
         sodipodi:cy="227.36218"
         sodipodi:rx="5"
         sodipodi:ry="5"
         d="m 110,227.36218 c 0,2.76143 -2.23858,5 -5,5 -2.76142,0 -5,-2.23857 -5,-5 0,-2.76142 2.23858,-5 5,-5 2.76142,0 5,2.23858 5,5 z"
         transform="translate(325.76224,-31.31993)" />
    </g>
    <path
       style="fill:none;stroke:#000000;stroke-width:1px;stroke-linecap:butt;stroke-linejoin:miter;stroke-opacity:1"
       d="m 260,272.36218 19.23776,-39.89136"
       id="path3098"
       inkscape:connector-curvature="0" />
    <path
       inkscape:connector-curvature="0"
       id="path3100"
       d="M 260,272.36218 240.76224,232.47082"
       style="fill:none;stroke:#000000;stroke-width:1px;stroke-linecap:butt;stroke-linejoin:miter;stroke-opacity:1" />
    <path
       sodipodi:type="arc"
       style="fill:#5a3733;fill-opacity:1;stroke:#000000;stroke-width:1.79999995;stroke-linecap:butt;stroke-linejoin:miter;stroke-miterlimit:4;stroke-opacity:1;stroke-dasharray:none;stroke-dashoffset:0"
       id="path3102"
       sodipodi:cx="105"
       sodipodi:cy="227.36218"
       sodipodi:rx="5"
       sodipodi:ry="5"
       d="m 110,227.36218 c 0,2.76143 -2.23858,5 -5,5 -2.76142,0 -5,-2.23857 -5,-5 0,-2.76142 2.23858,-5 5,-5 2.76142,0 5,2.23858 5,5 z"
       transform="translate(174.23776,5.1086423)" />
    <path
       transform="translate(135.76224,5.108641)"
       d="m 110,227.36218 c 0,2.76143 -2.23858,5 -5,5 -2.76142,0 -5,-2.23857 -5,-5 0,-2.76142 2.23858,-5 5,-5 2.76142,0 5,2.23858 5,5 z"
       sodipodi:ry="5"
       sodipodi:rx="5"
       sodipodi:cy="227.36218"
       sodipodi:cx="105"
       id="path3104"
       style="fill:#5a3733;fill-opacity:1;stroke:#000000;stroke-width:1.79999995;stroke-linecap:butt;stroke-linejoin:miter;stroke-miterlimit:4;stroke-opacity:1;stroke-dasharray:none;stroke-dashoffset:0"
       sodipodi:type="arc" />
    <path
       sodipodi:type="star"
       style="fill:#0090ff;fill-opacity:0;stroke:#000000;stroke-width:1.79999995;stroke-linecap:butt;stroke-linejoin:miter;stroke-miterlimit:4;stroke-opacity:1;stroke-dasharray:none;stroke-dashoffset:0"
       id="path3339"
       sodipodi:sides="12"
       sodipodi:cx="260"
       sodipodi:cy="412.36218"
       sodipodi:r1="140"
       sodipodi:r2="135.22961"
       sodipodi:arg1="1.5707963"
       sodipodi:arg2="1.8325957"
       inkscape:flatsided="true"
       inkscape:rounded="0"
       inkscape:randomized="0"
       d="m 260,552.36218 -70,-18.75644 -51.24355,-51.24355 -18.75645,-70 18.75644,-70 L 190,291.11863 l 70,-18.75645 70,18.75644 51.24355,51.24356 18.75645,70 -18.75644,70 L 330,533.60574 z" />
    <path
       sodipodi:type="arc"
       style="fill:#ff1500;fill-opacity:1;stroke:#000000;stroke-width:1.79999995;stroke-linecap:butt;stroke-linejoin:miter;stroke-miterlimit:4;stroke-opacity:1;stroke-dasharray:none;stroke-dashoffset:0"
       id="path4109"
       sodipodi:cx="105"
       sodipodi:cy="227.36218"
       sodipodi:rx="5"
       sodipodi:ry="5"
       d="m 110,227.36218 c 0,2.76143 -2.23858,5 -5,5 -2.76142,0 -5,-2.23857 -5,-5 0,-2.76142 2.23858,-5 5,-5 2.76142,0 5,2.23858 5,5 z"
       transform="translate(155,45.000001)" />
    <path
       transform="translate(33.75644,115.00001)"
       d="m 110,227.36218 c 0,2.76143 -2.23858,5 -5,5 -2.76142,0 -5,-2.23857 -5,-5 0,-2.76142 2.23858,-5 5,-5 2.76142,0 5,2.23858 5,5 z"
       sodipodi:ry="5"
       sodipodi:rx="5"
       sodipodi:cy="227.36218"
       sodipodi:cx="105"
       id="path4123"
       style="fill:#ff1500;fill-opacity:1;stroke:#000000;stroke-width:1.79999995;stroke-linecap:butt;stroke-linejoin:miter;stroke-miterlimit:4;stroke-opacity:1;stroke-dasharray:none;stroke-dashoffset:0"
       sodipodi:type="arc" />
    <path
       sodipodi:type="arc"
       style="fill:#ff1500;fill-opacity:1;stroke:#000000;stroke-width:1.79999995;stroke-linecap:butt;stroke-linejoin:miter;stroke-miterlimit:4;stroke-opacity:1;stroke-dasharray:none;stroke-dashoffset:0"
       id="path4125"
       sodipodi:cx="105"
       sodipodi:cy="227.36218"
       sodipodi:rx="5"
       sodipodi:ry="5"
       d="m 110,227.36218 c 0,2.76143 -2.23858,5 -5,5 -2.76142,0 -5,-2.23857 -5,-5 0,-2.76142 2.23858,-5 5,-5 2.76142,0 5,2.23858 5,5 z"
       transform="translate(33.75645,255.00001)" />
    <path
       transform="translate(155,325)"
       d="m 110,227.36218 c 0,2.76143 -2.23858,5 -5,5 -2.76142,0 -5,-2.23857 -5,-5 0,-2.76142 2.23858,-5 5,-5 2.76142,0 5,2.23858 5,5 z"
       sodipodi:ry="5"
       sodipodi:rx="5"
       sodipodi:cy="227.36218"
       sodipodi:cx="105"
       id="path4127"
       style="fill:#ff1500;fill-opacity:1;stroke:#000000;stroke-width:1.79999995;stroke-linecap:butt;stroke-linejoin:miter;stroke-miterlimit:4;stroke-opacity:1;stroke-dasharray:none;stroke-dashoffset:0"
       sodipodi:type="arc" />
    <path
       sodipodi:type="arc"
       style="fill:#5a3733;fill-opacity:1;stroke:#000000;stroke-width:1.79999995;stroke-linecap:butt;stroke-linejoin:miter;stroke-miterlimit:4;stroke-opacity:1;stroke-dasharray:none;stroke-dashoffset:0"
       id="path4129"
       sodipodi:cx="105"
       sodipodi:cy="227.36218"
       sodipodi:rx="5"
       sodipodi:ry="5"
       d="m 110,227.36218 c 0,2.76143 -2.23858,5 -5,5 -2.76142,0 -5,-2.23857 -5,-5 0,-2.76142 2.23858,-5 5,-5 2.76142,0 5,2.23858 5,5 z"
       transform="translate(85.000001,306.24356)" />
    <path
       transform="translate(15.000001,185.00001)"
       d="m 110,227.36218 c 0,2.76143 -2.23858,5 -5,5 -2.76142,0 -5,-2.23857 -5,-5 0,-2.76142 2.23858,-5 5,-5 2.76142,0 5,2.23858 5,5 z"
       sodipodi:ry="5"
       sodipodi:rx="5"
       sodipodi:cy="227.36218"
       sodipodi:cx="105"
       id="path4131"
       style="fill:#5a3733;fill-opacity:1;stroke:#000000;stroke-width:1.79999995;stroke-linecap:butt;stroke-linejoin:miter;stroke-miterlimit:4;stroke-opacity:1;stroke-dasharray:none;stroke-dashoffset:0"
       sodipodi:type="arc" />
    <path
       sodipodi:type="arc"
       style="fill:#5a3733;fill-opacity:1;stroke:#000000;stroke-width:1.79999995;stroke-linecap:butt;stroke-linejoin:miter;stroke-miterlimit:4;stroke-opacity:1;stroke-dasharray:none;stroke-dashoffset:0"
       id="path4133"
       sodipodi:cx="105"
       sodipodi:cy="227.36218"
       sodipodi:rx="5"
       sodipodi:ry="5"
       d="m 110,227.36218 c 0,2.76143 -2.23858,5 -5,5 -2.76142,0 -5,-2.23857 -5,-5 0,-2.76142 2.23858,-5 5,-5 2.76142,0 5,2.23858 5,5 z"
       transform="translate(85,63.756447)" />
    <path
       transform="translate(225,63.756437)"
       d="m 110,227.36218 c 0,2.76143 -2.23858,5 -5,5 -2.76142,0 -5,-2.23857 -5,-5 0,-2.76142 2.23858,-5 5,-5 2.76142,0 5,2.23858 5,5 z"
       sodipodi:ry="5"
       sodipodi:rx="5"
       sodipodi:cy="227.36218"
       sodipodi:cx="105"
       id="path4135"
       style="fill:#5a3733;fill-opacity:1;stroke:#000000;stroke-width:1.79999995;stroke-linecap:butt;stroke-linejoin:miter;stroke-miterlimit:4;stroke-opacity:1;stroke-dasharray:none;stroke-dashoffset:0"
       sodipodi:type="arc" />
    <path
       sodipodi:type="arc"
       style="fill:#ff1500;fill-opacity:1;stroke:#000000;stroke-width:1.79999995;stroke-linecap:butt;stroke-linejoin:miter;stroke-miterlimit:4;stroke-opacity:1;stroke-dasharray:none;stroke-dashoffset:0"
       id="path4137"
       sodipodi:cx="105"
       sodipodi:cy="227.36218"
       sodipodi:rx="5"
       sodipodi:ry="5"
       d="m 110,227.36218 c 0,2.76143 -2.23858,5 -5,5 -2.76142,0 -5,-2.23857 -5,-5 0,-2.76142 2.23858,-5 5,-5 2.76142,0 5,2.23858 5,5 z"
       transform="translate(276.24355,115)" />
    <path
       transform="translate(295,185)"
       d="m 110,227.36218 c 0,2.76143 -2.23858,5 -5,5 -2.76142,0 -5,-2.23857 -5,-5 0,-2.76142 2.23858,-5 5,-5 2.76142,0 5,2.23858 5,5 z"
       sodipodi:ry="5"
       sodipodi:rx="5"
       sodipodi:cy="227.36218"
       sodipodi:cx="105"
       id="path4139"
       style="fill:#5a3733;fill-opacity:1;stroke:#000000;stroke-width:1.79999995;stroke-linecap:butt;stroke-linejoin:miter;stroke-miterlimit:4;stroke-opacity:1;stroke-dasharray:none;stroke-dashoffset:0"
       sodipodi:type="arc" />
    <path
       sodipodi:type="arc"
       style="fill:#ff1500;fill-opacity:1;stroke:#000000;stroke-width:1.79999995;stroke-linecap:butt;stroke-linejoin:miter;stroke-miterlimit:4;stroke-opacity:1;stroke-dasharray:none;stroke-dashoffset:0"
       id="path4141"
       sodipodi:cx="105"
       sodipodi:cy="227.36218"
       sodipodi:rx="5"
       sodipodi:ry="5"
       d="m 110,227.36218 c 0,2.76143 -2.23858,5 -5,5 -2.76142,0 -5,-2.23857 -5,-5 0,-2.76142 2.23858,-5 5,-5 2.76142,0 5,2.23858 5,5 z"
       transform="translate(276.24356,255)" />
    <path
       transform="translate(225,306.24355)"
       d="m 110,227.36218 c 0,2.76143 -2.23858,5 -5,5 -2.76142,0 -5,-2.23857 -5,-5 0,-2.76142 2.23858,-5 5,-5 2.76142,0 5,2.23858 5,5 z"
       sodipodi:ry="5"
       sodipodi:rx="5"
       sodipodi:cy="227.36218"
       sodipodi:cx="105"
       id="path4143"
       style="fill:#5a3733;fill-opacity:1;stroke:#000000;stroke-width:1.79999995;stroke-linecap:butt;stroke-linejoin:miter;stroke-miterlimit:4;stroke-opacity:1;stroke-dasharray:none;stroke-dashoffset:0"
       sodipodi:type="arc" />
    <g
       id="g3044"
       transform="matrix(1.1089784,0,0,1.1089784,-24.039328,-9.4941316)">
      <text
         transform="scale(0.94610096,1.0569696)"
         inkscape:transform-center-y="-0.41076364"
         inkscape:transform-center-x="0.36610519"
         sodipodi:linespacing="125%"
         id="text4145"
         y="263.68488"
         x="267.93527"
         style="font-size:10.93446255px;font-style:normal;font-variant:normal;font-weight:normal;font-stretch:normal;line-height:125%;letter-spacing:0px;word-spacing:0px;fill:#000000;fill-opacity:1;stroke:none;font-family:Linux Biolinum O;-inkscape-font-specification:Linux Biolinum O"
         xml:space="preserve"><tspan
           y="263.68488"
           x="267.93527"
           id="tspan4147"
           sodipodi:role="line">γ</tspan></text>
      <text
         transform="scale(0.94610096,1.0569696)"
         sodipodi:linespacing="125%"
         id="text4179"
         y="268.51492"
         x="272.52527"
         style="font-size:5.92978811px;font-style:normal;font-variant:normal;font-weight:normal;font-stretch:normal;line-height:125%;letter-spacing:0px;word-spacing:0px;fill:#000000;fill-opacity:1;stroke:none;font-family:Liberation Serif;-inkscape-font-specification:Liberation Serif"
         xml:space="preserve"><tspan
           y="268.51492"
           x="272.52527"
           id="tspan4181"
           sodipodi:role="line">0</tspan></text>
      <text
         transform="scale(0.94610096,1.0569696)"
         inkscape:transform-center-y="-0.31890442"
         inkscape:transform-center-x="-0.013738029"
         sodipodi:linespacing="125%"
         id="text4191"
         y="276.40744"
         x="221.17987"
         style="font-size:10.93446255px;font-style:normal;font-variant:normal;font-weight:normal;font-stretch:normal;line-height:125%;letter-spacing:0px;word-spacing:0px;fill:#000000;fill-opacity:1;stroke:none;font-family:Linux Biolinum O;-inkscape-font-specification:Linux Biolinum O"
         xml:space="preserve"><tspan
           y="276.40744"
           x="221.17987"
           id="tspan4193"
           sodipodi:role="line">γ</tspan></text>
      <text
         transform="scale(0.94610096,1.0569696)"
         sodipodi:linespacing="125%"
         id="text4195"
         y="281.23734"
         x="225.76974"
         style="font-size:5.92978811px;font-style:normal;font-variant:normal;font-weight:normal;font-stretch:normal;line-height:125%;letter-spacing:0px;word-spacing:0px;fill:#000000;fill-opacity:1;stroke:none;font-family:Liberation Serif;-inkscape-font-specification:Liberation Serif"
         xml:space="preserve"
         inkscape:transform-center-x="-2.539251"
         inkscape:transform-center-y="3.907427"><tspan
           y="281.23734"
           x="225.76974"
           id="tspan4197"
           sodipodi:role="line">1</tspan></text>
      <text
         transform="scale(0.94610096,1.0569696)"
         xml:space="preserve"
         style="font-size:10.93446255px;font-style:normal;font-variant:normal;font-weight:normal;font-stretch:normal;line-height:125%;letter-spacing:0px;word-spacing:0px;fill:#000000;fill-opacity:1;stroke:none;font-family:Linux Biolinum O;-inkscape-font-specification:Linux Biolinum O"
         x="186.65869"
         y="310.92844"
         id="text4199"
         sodipodi:linespacing="125%"
         inkscape:transform-center-x="-0.013790796"
         inkscape:transform-center-y="-0.31915818"><tspan
           sodipodi:role="line"
           id="tspan4201"
           x="186.65869"
           y="310.92844">γ</tspan></text>
      <text
         transform="scale(0.94610096,1.0569696)"
         inkscape:transform-center-y="3.9073349"
         inkscape:transform-center-x="-2.5392463"
         xml:space="preserve"
         style="font-size:5.92978811px;font-style:normal;font-variant:normal;font-weight:normal;font-stretch:normal;line-height:125%;letter-spacing:0px;word-spacing:0px;fill:#000000;fill-opacity:1;stroke:none;font-family:Liberation Serif;-inkscape-font-specification:Liberation Serif"
         x="191.2485"
         y="315.75848"
         id="text4203"
         sodipodi:linespacing="125%"><tspan
           sodipodi:role="line"
           id="tspan4205"
           x="191.2485"
           y="315.75848">2</tspan></text>
      <text
         transform="scale(0.94610096,1.0569696)"
         inkscape:transform-center-y="-0.31908448"
         inkscape:transform-center-x="-0.013755694"
         sodipodi:linespacing="125%"
         id="text4207"
         y="358.08539"
         x="174.02301"
         style="font-size:10.93446255px;font-style:normal;font-variant:normal;font-weight:normal;font-stretch:normal;line-height:125%;letter-spacing:0px;word-spacing:0px;fill:#000000;fill-opacity:1;stroke:none;font-family:Linux Biolinum O;-inkscape-font-specification:Linux Biolinum O"
         xml:space="preserve"><tspan
           y="358.08539"
           x="174.02301"
           id="tspan4209"
           sodipodi:role="line">γ</tspan></text>
      <text
         transform="scale(0.94610096,1.0569696)"
         sodipodi:linespacing="125%"
         id="text4211"
         y="362.91534"
         x="178.61292"
         style="font-size:5.92978811px;font-style:normal;font-variant:normal;font-weight:normal;font-stretch:normal;line-height:125%;letter-spacing:0px;word-spacing:0px;fill:#000000;fill-opacity:1;stroke:none;font-family:Liberation Serif;-inkscape-font-specification:Liberation Serif"
         xml:space="preserve"
         inkscape:transform-center-x="-2.5393031"
         inkscape:transform-center-y="3.9073109"><tspan
           y="362.91534"
           x="178.61292"
           id="tspan4213"
           sodipodi:role="line">3</tspan></text>
      <text
         transform="scale(0.94610096,1.0569696)"
         xml:space="preserve"
         style="font-size:10.93446255px;font-style:normal;font-variant:normal;font-weight:normal;font-stretch:normal;line-height:125%;letter-spacing:0px;word-spacing:0px;fill:#000000;fill-opacity:1;stroke:none;font-family:Linux Biolinum O;-inkscape-font-specification:Linux Biolinum O"
         x="186.65869"
         y="405.24243"
         id="text4215"
         sodipodi:linespacing="125%"
         inkscape:transform-center-x="-0.013790796"
         inkscape:transform-center-y="-0.31893175"><tspan
           sodipodi:role="line"
           id="tspan4217"
           x="186.65869"
           y="405.24243">γ</tspan></text>
      <text
         transform="scale(0.94610096,1.0569696)"
         inkscape:transform-center-y="3.9074316"
         inkscape:transform-center-x="-2.5392463"
         xml:space="preserve"
         style="font-size:5.92978811px;font-style:normal;font-variant:normal;font-weight:normal;font-stretch:normal;line-height:125%;letter-spacing:0px;word-spacing:0px;fill:#000000;fill-opacity:1;stroke:none;font-family:Liberation Serif;-inkscape-font-specification:Liberation Serif"
         x="191.2485"
         y="410.07236"
         id="text4219"
         sodipodi:linespacing="125%"><tspan
           sodipodi:role="line"
           id="tspan4221"
           x="191.2485"
           y="410.07236">4</tspan></text>
      <text
         transform="scale(0.94610096,1.0569696)"
         inkscape:transform-center-y="-0.31891785"
         inkscape:transform-center-x="-0.013738029"
         sodipodi:linespacing="125%"
         id="text4223"
         y="439.76364"
         x="221.17987"
         style="font-size:10.93446255px;font-style:normal;font-variant:normal;font-weight:normal;font-stretch:normal;line-height:125%;letter-spacing:0px;word-spacing:0px;fill:#000000;fill-opacity:1;stroke:none;font-family:Linux Biolinum O;-inkscape-font-specification:Linux Biolinum O"
         xml:space="preserve"><tspan
           y="439.76364"
           x="221.17987"
           id="tspan4225"
           sodipodi:role="line">γ</tspan></text>
      <text
         transform="scale(0.94610096,1.0569696)"
         sodipodi:linespacing="125%"
         id="text4227"
         y="444.59348"
         x="225.76974"
         style="font-size:5.92978811px;font-style:normal;font-variant:normal;font-weight:normal;font-stretch:normal;line-height:125%;letter-spacing:0px;word-spacing:0px;fill:#000000;fill-opacity:1;stroke:none;font-family:Liberation Serif;-inkscape-font-specification:Liberation Serif"
         xml:space="preserve"
         inkscape:transform-center-x="-2.539251"
         inkscape:transform-center-y="3.9073488"><tspan
           y="444.59348"
           x="225.76974"
           id="tspan4229"
           sodipodi:role="line">5</tspan></text>
      <text
         transform="scale(0.94610096,1.0569696)"
         xml:space="preserve"
         style="font-size:10.93446255px;font-style:normal;font-variant:normal;font-weight:normal;font-stretch:normal;line-height:125%;letter-spacing:0px;word-spacing:0px;fill:#000000;fill-opacity:1;stroke:none;font-family:Linux Biolinum O;-inkscape-font-specification:Linux Biolinum O"
         x="268.33676"
         y="452.39923"
         id="text4231"
         sodipodi:linespacing="125%"
         inkscape:transform-center-x="-0.013739863"
         inkscape:transform-center-y="-0.31901942"><tspan
           sodipodi:role="line"
           id="tspan4233"
           x="268.33676"
           y="452.39923">γ</tspan></text>
      <text
         transform="scale(0.94610096,1.0569696)"
         inkscape:transform-center-y="3.9073766"
         inkscape:transform-center-x="-2.5392317"
         xml:space="preserve"
         style="font-size:5.92978811px;font-style:normal;font-variant:normal;font-weight:normal;font-stretch:normal;line-height:125%;letter-spacing:0px;word-spacing:0px;fill:#000000;fill-opacity:1;stroke:none;font-family:Liberation Serif;-inkscape-font-specification:Liberation Serif"
         x="272.92661"
         y="457.22919"
         id="text4235"
         sodipodi:linespacing="125%"><tspan
           sodipodi:role="line"
           id="tspan4237"
           x="272.92661"
           y="457.22919">6</tspan></text>
      <text
         transform="scale(0.94610096,1.0569696)"
         inkscape:transform-center-y="-0.31891785"
         inkscape:transform-center-x="-0.01377057"
         sodipodi:linespacing="125%"
         id="text4239"
         y="439.76364"
         x="315.49368"
         style="font-size:10.93446255px;font-style:normal;font-variant:normal;font-weight:normal;font-stretch:normal;line-height:125%;letter-spacing:0px;word-spacing:0px;fill:#000000;fill-opacity:1;stroke:none;font-family:Linux Biolinum O;-inkscape-font-specification:Linux Biolinum O"
         xml:space="preserve"><tspan
           y="439.76364"
           x="315.49368"
           id="tspan4241"
           sodipodi:role="line">γ</tspan></text>
      <text
         transform="scale(0.94610096,1.0569696)"
         sodipodi:linespacing="125%"
         id="text4243"
         y="444.59348"
         x="320.08353"
         style="font-size:5.92978811px;font-style:normal;font-variant:normal;font-weight:normal;font-stretch:normal;line-height:125%;letter-spacing:0px;word-spacing:0px;fill:#000000;fill-opacity:1;stroke:none;font-family:Liberation Serif;-inkscape-font-specification:Liberation Serif"
         xml:space="preserve"
         inkscape:transform-center-x="-2.5392705"
         inkscape:transform-center-y="3.9073488"><tspan
           y="444.59348"
           x="320.08353"
           id="tspan4245"
           sodipodi:role="line">7</tspan></text>
      <text
         transform="scale(0.94610096,1.0569696)"
         xml:space="preserve"
         style="font-size:10.93446255px;font-style:normal;font-variant:normal;font-weight:normal;font-stretch:normal;line-height:125%;letter-spacing:0px;word-spacing:0px;fill:#000000;fill-opacity:1;stroke:none;font-family:Linux Biolinum O;-inkscape-font-specification:Linux Biolinum O"
         x="350.0148"
         y="405.24243"
         id="text4247"
         sodipodi:linespacing="125%"
         inkscape:transform-center-x="-0.013675838"
         inkscape:transform-center-y="-0.31891414"><tspan
           sodipodi:role="line"
           id="tspan4249"
           x="350.0148"
           y="405.24243">γ</tspan></text>
      <text
         transform="scale(0.94610096,1.0569696)"
         inkscape:transform-center-y="3.907417"
         inkscape:transform-center-x="-2.5392622"
         xml:space="preserve"
         style="font-size:5.92978811px;font-style:normal;font-variant:normal;font-weight:normal;font-stretch:normal;line-height:125%;letter-spacing:0px;word-spacing:0px;fill:#000000;fill-opacity:1;stroke:none;font-family:Liberation Serif;-inkscape-font-specification:Liberation Serif"
         x="354.60474"
         y="410.07233"
         id="text4251"
         sodipodi:linespacing="125%"><tspan
           sodipodi:role="line"
           id="tspan4253"
           x="354.60474"
           y="410.07233">8</tspan></text>
      <text
         transform="scale(0.94610096,1.0569696)"
         inkscape:transform-center-y="-0.31908448"
         inkscape:transform-center-x="-0.013764516"
         sodipodi:linespacing="125%"
         id="text4255"
         y="358.08539"
         x="362.65057"
         style="font-size:10.93446255px;font-style:normal;font-variant:normal;font-weight:normal;font-stretch:normal;line-height:125%;letter-spacing:0px;word-spacing:0px;fill:#000000;fill-opacity:1;stroke:none;font-family:Linux Biolinum O;-inkscape-font-specification:Linux Biolinum O"
         xml:space="preserve"><tspan
           y="358.08539"
           x="362.65057"
           id="tspan4257"
           sodipodi:role="line">γ</tspan></text>
      <text
         transform="scale(0.94610096,1.0569696)"
         sodipodi:linespacing="125%"
         id="text4259"
         y="362.91534"
         x="367.24045"
         style="font-size:5.92978811px;font-style:normal;font-variant:normal;font-weight:normal;font-stretch:normal;line-height:125%;letter-spacing:0px;word-spacing:0px;fill:#000000;fill-opacity:1;stroke:none;font-family:Liberation Serif;-inkscape-font-specification:Liberation Serif"
         xml:space="preserve"
         inkscape:transform-center-x="-2.539293"
         inkscape:transform-center-y="3.9073109"><tspan
           y="362.91534"
           x="367.24045"
           id="tspan4261"
           sodipodi:role="line">9</tspan></text>
      <text
         transform="scale(0.94610096,1.0569696)"
         xml:space="preserve"
         style="font-size:10.93446255px;font-style:normal;font-variant:normal;font-weight:normal;font-stretch:normal;line-height:125%;letter-spacing:0px;word-spacing:0px;fill:#000000;fill-opacity:1;stroke:none;font-family:Linux Biolinum O;-inkscape-font-specification:Linux Biolinum O"
         x="350.0148"
         y="310.92844"
         id="text4263"
         sodipodi:linespacing="125%"
         inkscape:transform-center-x="-0.013675838"
         inkscape:transform-center-y="-0.3191405"><tspan
           sodipodi:role="line"
           id="tspan4265"
           x="350.0148"
           y="310.92844">γ</tspan></text>
      <text
         transform="scale(0.94610096,1.0569696)"
         inkscape:transform-center-y="3.9073517"
         inkscape:transform-center-x="-2.5392626"
         xml:space="preserve"
         style="font-size:5.92978811px;font-style:normal;font-variant:normal;font-weight:normal;font-stretch:normal;line-height:125%;letter-spacing:0px;word-spacing:0px;fill:#000000;fill-opacity:1;stroke:none;font-family:Liberation Serif;-inkscape-font-specification:Liberation Serif"
         x="354.60474"
         y="315.75848"
         id="text4267"
         sodipodi:linespacing="125%"><tspan
           sodipodi:role="line"
           id="tspan4269"
           x="354.60474"
           y="315.75848">10</tspan></text>
      <text
         transform="scale(0.94610096,1.0569696)"
         inkscape:transform-center-y="-0.31890442"
         inkscape:transform-center-x="-0.01377057"
         sodipodi:linespacing="125%"
         id="text4271"
         y="276.40744"
         x="315.49368"
         style="font-size:10.93446255px;font-style:normal;font-variant:normal;font-weight:normal;font-stretch:normal;line-height:125%;letter-spacing:0px;word-spacing:0px;fill:#000000;fill-opacity:1;stroke:none;font-family:Linux Biolinum O;-inkscape-font-specification:Linux Biolinum O"
         xml:space="preserve"><tspan
           y="276.40744"
           x="315.49368"
           id="tspan4273"
           sodipodi:role="line">γ</tspan></text>
      <text
         transform="scale(0.94610096,1.0569696)"
         sodipodi:linespacing="125%"
         id="text4275"
         y="281.23734"
         x="320.08353"
         style="font-size:5.92978811px;font-style:normal;font-variant:normal;font-weight:normal;font-stretch:normal;line-height:125%;letter-spacing:0px;word-spacing:0px;fill:#000000;fill-opacity:1;stroke:none;font-family:Liberation Serif;-inkscape-font-specification:Liberation Serif"
         xml:space="preserve"
         inkscape:transform-center-x="-2.539271"
         inkscape:transform-center-y="3.907427"><tspan
           y="281.23734"
           x="320.08353"
           id="tspan4277"
           sodipodi:role="line">11</tspan></text>
    </g>
  </g>
</svg>
