<?xml version="1.0" encoding="UTF-8" standalone="no"?>
<!-- Created with Inkscape (http://www.inkscape.org/) -->

<svg
   xmlns:dc="http://purl.org/dc/elements/1.1/"
   xmlns:cc="http://creativecommons.org/ns#"
   xmlns:rdf="http://www.w3.org/1999/02/22-rdf-syntax-ns#"
   xmlns:svg="http://www.w3.org/2000/svg"
   xmlns="http://www.w3.org/2000/svg"
   xmlns:sodipodi="http://sodipodi.sourceforge.net/DTD/sodipodi-0.dtd"
   xmlns:inkscape="http://www.inkscape.org/namespaces/inkscape"
   width="203.99449"
   height="172.73096"
   id="svg10601"
   version="1.1"
   inkscape:version="0.48.4 r9939"
   sodipodi:docname="New document 41">
  <defs
     id="defs10603">
    <marker
       inkscape:stockid="Scissors"
       orient="auto"
       refY="0"
       refX="0"
       id="Scissors"
       style="overflow:visible">
      <path
         inkscape:connector-curvature="0"
         id="schere"
         d="M 9.0898857,-3.6061018 C 8.1198849,-4.7769976 6.3697607,-4.7358294 5.0623558,-4.2327734 l -8.2124046,3.0779029 c -2.3882933,-1.3067135 -4.7482873,-0.9325372 -4.7482873,-1.5687873 0,-0.4973164 0.4566662,-0.3883222 0.3883068,-1.6831941 -0.065635,-1.2432767 -1.3635771,-2.1630796 -2.5903987,-2.0816435 -1.227271,-0.00735 -2.499439,0.9331613 -2.510341,2.2300611 -0.09143,1.3063864 1.007209,2.5196896 2.306764,2.6052316 1.5223406,0.2266616 4.218258,-0.6955566 5.482945,1.57086006 -0.9422847,1.73825774 -2.6140244,1.74307674 -4.1255107,1.65607034 -1.2548743,-0.072235 -2.7620933,0.2873979 -3.3606483,1.5208605 -0.578367,1.1820862 -0.0112,2.8646022 1.316749,3.226412 1.3401912,0.4918277 3.1806689,-0.129711 3.4993722,-1.6707242 0.2456585,-1.187823 -0.5953659,-1.7459574 -0.2725074,-2.1771537 0.2436135,-0.32536 1.7907806,-0.1368452 4.5471053,-1.3748244 L 5.6763468,4.2330688 C 6.8000164,4.5467672 8.1730685,4.5362646 9.1684433,3.4313614 L -0.05164093,-0.05372222 9.0898857,-3.6061018 z m -18.3078016,-1.900504 c 1.294559,0.7227998 1.1888392,2.6835702 -0.1564272,3.0632889 -1.2165179,0.423661 -2.7710269,-0.7589694 -2.3831779,-2.0774648 0.227148,-1.0818519 1.653387,-1.480632 2.5396051,-0.9858241 z m 0.056264,8.0173649 c 1.3508301,0.4988648 1.1214429,2.7844356 -0.2522207,3.091609 -0.9110594,0.3163391 -2.2135494,-0.1387976 -2.3056964,-1.2121394 -0.177609,-1.305055 1.356085,-2.4841482 2.5579171,-1.8794696 z"
         style="fill:#000000" />
    </marker>
  </defs>
  <sodipodi:namedview
     id="base"
     pagecolor="#ffffff"
     bordercolor="#666666"
     borderopacity="1.0"
     inkscape:pageopacity="0.0"
     inkscape:pageshadow="2"
     inkscape:zoom="0.7"
     inkscape:cx="134.23838"
     inkscape:cy="133.13653"
     inkscape:document-units="px"
     inkscape:current-layer="layer1"
     showgrid="false"
     fit-margin-top="0"
     fit-margin-left="0"
     fit-margin-right="0"
     fit-margin-bottom="0"
     inkscape:window-width="455"
     inkscape:window-height="445"
     inkscape:window-x="0"
     inkscape:window-y="0"
     inkscape:window-maximized="0" />
  <metadata
     id="metadata10606">
    <rdf:RDF>
      <cc:Work
         rdf:about="">
        <dc:format>image/svg+xml</dc:format>
        <dc:type
           rdf:resource="http://purl.org/dc/dcmitype/StillImage" />
        <dc:title></dc:title>
      </cc:Work>
    </rdf:RDF>
  </metadata>
  <g
     inkscape:label="Layer 1"
     inkscape:groupmode="layer"
     id="layer1"
     transform="translate(-126.47591,-378.48205)">
    <rect
       y="425.11087"
       x="132.22482"
       height="120.35323"
       width="119.18755"
       id="rect9641"
       style="fill:none;stroke:#000000;stroke-width:2.03396749;stroke-linecap:round;stroke-miterlimit:4;stroke-opacity:1;stroke-dasharray:none" />
    <rect
       style="fill:none;stroke:#000000;stroke-width:2.84681201;stroke-linecap:round;stroke-miterlimit:4;stroke-opacity:1;stroke-dasharray:none"
       id="rect9647"
       width="117.52386"
       height="81.759796"
       x="870.2019"
       y="768.46191"
       transform="matrix(1,0,-0.8660254,0.5,0,0)" />
    <rect
       transform="matrix(0,1,0.86744211,-0.49753813,0,0)"
       y="289.83188"
       x="570.47919"
       height="83.929581"
       width="119.18737"
       id="rect9649"
       style="fill:none;stroke:#000000;stroke-width:2.16134214;stroke-linecap:round;stroke-miterlimit:4;stroke-opacity:1;stroke-dasharray:none" />
    <path
       sodipodi:type="arc"
       style="fill:#ffffff;fill-opacity:1;stroke:#000000;stroke-width:2.5;stroke-linecap:butt;stroke-linejoin:miter;stroke-miterlimit:4;stroke-opacity:1;stroke-dasharray:none;stroke-dashoffset:0"
       id="path9651"
       sodipodi:cx="345.71429"
       sodipodi:cy="261.84766"
       sodipodi:rx="2.8571429"
       sodipodi:ry="2.8571429"
       d="m 348.57144,261.84766 c 0,1.57795 -1.27919,2.85714 -2.85715,2.85714 -1.57795,0 -2.85714,-1.27919 -2.85714,-2.85714 0,-1.57796 1.27919,-2.85715 2.85714,-2.85715 1.57796,0 2.85715,1.27919 2.85715,2.85715 z"
       transform="translate(-94.475266,163.76819)" />
    <path
       transform="translate(-22.754426,122.85701)"
       d="m 348.57144,261.84766 c 0,1.57795 -1.27919,2.85714 -2.85715,2.85714 -1.57795,0 -2.85714,-1.27919 -2.85714,-2.85714 0,-1.57796 1.27919,-2.85715 2.85714,-2.85715 1.57796,0 2.85715,1.27919 2.85715,2.85715 z"
       sodipodi:ry="2.8571429"
       sodipodi:rx="2.8571429"
       sodipodi:cy="261.84766"
       sodipodi:cx="345.71429"
       id="path9653"
       style="fill:#ffffff;fill-opacity:1;stroke:#000000;stroke-width:2.5;stroke-linecap:butt;stroke-linejoin:miter;stroke-miterlimit:4;stroke-opacity:1;stroke-dasharray:none;stroke-dashoffset:0"
       sodipodi:type="arc" />
    <path
       sodipodi:type="arc"
       style="fill:#ffffff;fill-opacity:1;stroke:#000000;stroke-width:2.5;stroke-linecap:butt;stroke-linejoin:miter;stroke-miterlimit:4;stroke-opacity:1;stroke-dasharray:none;stroke-dashoffset:0"
       id="path9655"
       sodipodi:cx="345.71429"
       sodipodi:cy="261.84766"
       sodipodi:rx="2.8571429"
       sodipodi:ry="2.8571429"
       d="m 348.57144,261.84766 c 0,1.57795 -1.27919,2.85714 -2.85715,2.85714 -1.57795,0 -2.85714,-1.27919 -2.85714,-2.85714 0,-1.57796 1.27919,-2.85715 2.85714,-2.85715 1.57796,0 2.85715,1.27919 2.85715,2.85715 z"
       transform="translate(-22.754426,241.54993)" />
    <path
       transform="translate(-94.475266,282.9662)"
       d="m 348.57144,261.84766 c 0,1.57795 -1.27919,2.85714 -2.85715,2.85714 -1.57795,0 -2.85714,-1.27919 -2.85714,-2.85714 0,-1.57796 1.27919,-2.85715 2.85714,-2.85715 1.57796,0 2.85715,1.27919 2.85715,2.85715 z"
       sodipodi:ry="2.8571429"
       sodipodi:rx="2.8571429"
       sodipodi:cy="261.84766"
       sodipodi:cx="345.71429"
       id="path9657"
       style="fill:#ffffff;fill-opacity:1;stroke:#000000;stroke-width:2.5;stroke-linecap:butt;stroke-linejoin:miter;stroke-miterlimit:4;stroke-opacity:1;stroke-dasharray:none;stroke-dashoffset:0"
       sodipodi:type="arc" />
    <path
       sodipodi:type="arc"
       style="fill:#ffffff;fill-opacity:1;stroke:#000000;stroke-width:2.5;stroke-linecap:butt;stroke-linejoin:miter;stroke-miterlimit:4;stroke-opacity:1;stroke-dasharray:none;stroke-dashoffset:0"
       id="path9659"
       sodipodi:cx="345.71429"
       sodipodi:cy="261.84766"
       sodipodi:rx="2.8571429"
       sodipodi:ry="2.8571429"
       d="m 348.57144,261.84766 c 0,1.57795 -1.27919,2.85714 -2.85715,2.85714 -1.57795,0 -2.85714,-1.27919 -2.85714,-2.85714 0,-1.57796 1.27919,-2.85715 2.85714,-2.85715 1.57796,0 2.85715,1.27919 2.85715,2.85715 z"
       transform="translate(-142.45751,122.85701)" />
    <path
       transform="translate(-212.66311,163.76819)"
       d="m 348.57144,261.84766 c 0,1.57795 -1.27919,2.85714 -2.85715,2.85714 -1.57795,0 -2.85714,-1.27919 -2.85714,-2.85714 0,-1.57796 1.27919,-2.85715 2.85714,-2.85715 1.57796,0 2.85715,1.27919 2.85715,2.85715 z"
       sodipodi:ry="2.8571429"
       sodipodi:rx="2.8571429"
       sodipodi:cy="261.84766"
       sodipodi:cx="345.71429"
       id="path9661"
       style="fill:#ffffff;fill-opacity:1;stroke:#000000;stroke-width:2.5;stroke-linecap:butt;stroke-linejoin:miter;stroke-miterlimit:4;stroke-opacity:1;stroke-dasharray:none;stroke-dashoffset:0"
       sodipodi:type="arc" />
    <path
       sodipodi:type="arc"
       style="fill:#ffffff;fill-opacity:1;stroke:#000000;stroke-width:2.5;stroke-linecap:butt;stroke-linejoin:miter;stroke-miterlimit:4;stroke-opacity:1;stroke-dasharray:none;stroke-dashoffset:0"
       id="path9663"
       sodipodi:cx="345.71429"
       sodipodi:cy="261.84766"
       sodipodi:rx="2.8571429"
       sodipodi:ry="2.8571429"
       d="m 348.57144,261.84766 c 0,1.57795 -1.27919,2.85714 -2.85715,2.85714 -1.57795,0 -2.85714,-1.27919 -2.85714,-2.85714 0,-1.57796 1.27919,-2.85715 2.85714,-2.85715 1.57796,0 2.85715,1.27919 2.85715,2.85715 z"
       transform="translate(-212.66311,283.47128)" />
    <path
       style="fill:none;stroke:#000000;stroke-width:1px;stroke-linecap:butt;stroke-linejoin:miter;stroke-opacity:1"
       d="m 286.9425,413.55162 4.28571,-11.42856"
       id="path9665"
       inkscape:connector-curvature="0" />
    <path
       inkscape:connector-curvature="0"
       id="path9667"
       d="m 280.30472,401.86308 10.92349,0.25998"
       style="fill:none;stroke:#000000;stroke-width:1px;stroke-linecap:butt;stroke-linejoin:miter;stroke-opacity:1"
       sodipodi:nodetypes="cc" />
    <path
       inkscape:connector-curvature="0"
       id="path9669"
       d="m 286.9425,413.55162 4.28571,-11.42856"
       style="fill:none;stroke:#000000;stroke-width:1px;stroke-linecap:butt;stroke-linejoin:miter;stroke-opacity:1" />
    <path
       sodipodi:nodetypes="cc"
       style="fill:none;stroke:#000000;stroke-width:1px;stroke-linecap:butt;stroke-linejoin:miter;stroke-opacity:1"
       d="m 300.8437,510.58652 10.92349,0.25998"
       id="path9671"
       inkscape:connector-curvature="0" />
    <path
       style="fill:none;stroke:#000000;stroke-width:1px;stroke-linecap:butt;stroke-linejoin:miter;stroke-opacity:1"
       d="m 307.48148,522.27506 4.28571,-11.42856"
       id="path9673"
       inkscape:connector-curvature="0" />
    <path
       inkscape:connector-curvature="0"
       id="path9675"
       d="m 284.11258,520.18297 10.92349,0.25998"
       style="fill:none;stroke:#000000;stroke-width:1px;stroke-linecap:butt;stroke-linejoin:miter;stroke-opacity:1"
       sodipodi:nodetypes="cc" />
    <path
       inkscape:connector-curvature="0"
       id="path9677"
       d="m 290.75036,531.87151 4.28571,-11.42856"
       style="fill:none;stroke:#000000;stroke-width:1px;stroke-linecap:butt;stroke-linejoin:miter;stroke-opacity:1" />
    <path
       inkscape:connector-curvature="0"
       id="path9679"
       d="m 180.89183,391.40671 10.92349,0.25998"
       style="fill:none;stroke:#000000;stroke-width:1px;stroke-linecap:butt;stroke-linejoin:miter;stroke-opacity:1"
       sodipodi:nodetypes="cc" />
    <path
       inkscape:connector-curvature="0"
       id="path9681"
       d="m 187.52961,403.09525 4.28571,-11.42856"
       style="fill:none;stroke:#000000;stroke-width:1px;stroke-linecap:butt;stroke-linejoin:miter;stroke-opacity:1" />
    <path
       sodipodi:nodetypes="cc"
       style="fill:none;stroke:#000000;stroke-width:1px;stroke-linecap:butt;stroke-linejoin:miter;stroke-opacity:1"
       d="m 164.16071,401.00316 10.92349,0.25998"
       id="path9683"
       inkscape:connector-curvature="0" />
    <path
       style="fill:none;stroke:#000000;stroke-width:1px;stroke-linecap:butt;stroke-linejoin:miter;stroke-opacity:1"
       d="m 170.79849,412.6917 4.28571,-11.42856"
       id="path9685"
       inkscape:connector-curvature="0" />
    <path
       sodipodi:type="star"
       style="fill:#ffffff;fill-opacity:1;stroke:#000000;stroke-width:1;stroke-linecap:butt;stroke-linejoin:miter;stroke-miterlimit:4;stroke-opacity:1;stroke-dasharray:none;stroke-dashoffset:0"
       id="path9687"
       sodipodi:sides="3"
       sodipodi:cx="-297.995"
       sodipodi:cy="69.899513"
       sodipodi:r1="6.060915"
       sodipodi:r2="3.0304575"
       sodipodi:arg1="-1.5707963"
       sodipodi:arg2="-0.52359878"
       inkscape:flatsided="false"
       inkscape:rounded="0"
       inkscape:randomized="0"
       d="m -297.99499,63.838598 2.62445,4.545686 2.62445,4.545687 -5.24891,0 -5.2489,0 2.62445,-4.545686 z"
       transform="translate(430.21981,406.22398)"
       inkscape:transform-center-y="-1.5152288" />
    <path
       inkscape:transform-center-y="-1.5152288"
       transform="translate(430.72489,429.45749)"
       d="m -297.99499,63.838598 2.62445,4.545686 2.62445,4.545687 -5.24891,0 -5.2489,0 2.62445,-4.545686 z"
       inkscape:randomized="0"
       inkscape:rounded="0"
       inkscape:flatsided="false"
       sodipodi:arg2="-0.52359878"
       sodipodi:arg1="-1.5707963"
       sodipodi:r2="3.0304575"
       sodipodi:r1="6.060915"
       sodipodi:cy="69.899513"
       sodipodi:cx="-297.995"
       sodipodi:sides="3"
       id="path9689"
       style="fill:#ffffff;fill-opacity:1;stroke:#000000;stroke-width:1;stroke-linecap:butt;stroke-linejoin:miter;stroke-miterlimit:4;stroke-opacity:1;stroke-dasharray:none;stroke-dashoffset:0"
       sodipodi:type="star" />
    <path
       inkscape:transform-center-y="1.1092193"
       transform="matrix(1,-1,0,1,622.21141,70.348253)"
       d="m -297.99499,63.838598 2.62445,4.545686 2.62445,4.545687 -5.24891,0 -5.2489,0 2.62445,-4.545686 z"
       inkscape:randomized="0"
       inkscape:rounded="0"
       inkscape:flatsided="false"
       sodipodi:arg2="-0.52359878"
       sodipodi:arg1="-1.5707963"
       sodipodi:r2="3.0304575"
       sodipodi:r1="6.060915"
       sodipodi:cy="69.899513"
       sodipodi:cx="-297.995"
       sodipodi:sides="3"
       id="path9691"
       style="fill:#ffffff;fill-opacity:1;stroke:#000000;stroke-width:1;stroke-linecap:butt;stroke-linejoin:miter;stroke-miterlimit:4;stroke-opacity:1;stroke-dasharray:none;stroke-dashoffset:0"
       sodipodi:type="star" />
    <path
       sodipodi:type="star"
       style="fill:#ffffff;fill-opacity:1;stroke:#000000;stroke-width:1;stroke-linecap:butt;stroke-linejoin:miter;stroke-miterlimit:4;stroke-opacity:1;stroke-dasharray:none;stroke-dashoffset:0"
       id="path9693"
       sodipodi:sides="3"
       sodipodi:cx="-297.995"
       sodipodi:cy="69.899513"
       sodipodi:r1="6.060915"
       sodipodi:r2="3.0304575"
       sodipodi:arg1="-1.5707963"
       sodipodi:arg2="-0.52359878"
       inkscape:flatsided="false"
       inkscape:rounded="0"
       inkscape:randomized="0"
       d="m -297.99499,63.838598 2.62445,4.545686 2.62445,4.545687 -5.24891,0 -5.2489,0 2.62445,-4.545686 z"
       transform="matrix(1,-1,0,1,622.71649,93.076683)"
       inkscape:transform-center-y="1.1092193" />
    <path
       sodipodi:type="star"
       style="fill:#ffffff;fill-opacity:1;stroke:#000000;stroke-width:1;stroke-linecap:butt;stroke-linejoin:miter;stroke-miterlimit:4;stroke-opacity:1;stroke-dasharray:none;stroke-dashoffset:0"
       id="path9695"
       sodipodi:sides="3"
       sodipodi:cx="-297.995"
       sodipodi:cy="69.899513"
       sodipodi:r1="6.060915"
       sodipodi:r2="3.0304575"
       sodipodi:arg1="-1.5707963"
       sodipodi:arg2="-0.52359878"
       inkscape:flatsided="false"
       inkscape:rounded="0"
       inkscape:randomized="0"
       d="m -297.99499,63.838598 2.62445,4.545686 2.62445,4.545687 -5.24891,0 -5.2489,0 2.62445,-4.545686 z"
       transform="matrix(0,1,-1,0,259.28527,843.45909)"
       inkscape:transform-center-x="-1.5152286" />
    <path
       inkscape:transform-center-x="1.1092245"
       transform="matrix(-1,1,-1,0,21.394364,682.22595)"
       d="m -297.99499,63.838598 2.62445,4.545686 2.62445,4.545687 -5.24891,0 -5.2489,0 2.62445,-4.545686 z"
       inkscape:randomized="0"
       inkscape:rounded="0"
       inkscape:flatsided="false"
       sodipodi:arg2="-0.52359878"
       sodipodi:arg1="-1.5707963"
       sodipodi:r2="3.0304575"
       sodipodi:r1="6.060915"
       sodipodi:cy="69.899513"
       sodipodi:cx="-297.995"
       sodipodi:sides="3"
       id="path9699"
       style="fill:#ffffff;fill-opacity:1;stroke:#000000;stroke-width:1;stroke-linecap:butt;stroke-linejoin:miter;stroke-miterlimit:4;stroke-opacity:1;stroke-dasharray:none;stroke-dashoffset:0"
       sodipodi:type="star" />
  </g>
</svg>
