<?xml version="1.0" encoding="UTF-8" standalone="no"?>
<!-- Created with Inkscape (http://www.inkscape.org/) -->

<svg
   xmlns:dc="http://purl.org/dc/elements/1.1/"
   xmlns:cc="http://creativecommons.org/ns#"
   xmlns:rdf="http://www.w3.org/1999/02/22-rdf-syntax-ns#"
   xmlns:svg="http://www.w3.org/2000/svg"
   xmlns="http://www.w3.org/2000/svg"
   xmlns:sodipodi="http://sodipodi.sourceforge.net/DTD/sodipodi-0.dtd"
   xmlns:inkscape="http://www.inkscape.org/namespaces/inkscape"
   width="744.09448819"
   height="1052.3622047"
   id="svg8126"
   version="1.1"
   inkscape:version="0.48.4 r9939"
   sodipodi:docname="New document 20">
  <defs
     id="defs8128">
    <marker
       inkscape:stockid="Arrow1Lend"
       orient="auto"
       refY="0"
       refX="0"
       id="Arrow1Lend"
       style="overflow:visible">
      <path
         id="path6549"
         d="M 0,0 5,-5 -12.5,0 5,5 0,0 z"
         style="fill-rule:evenodd;stroke:#000000;stroke-width:1pt"
         transform="matrix(-0.8,0,0,-0.8,-10,0)"
         inkscape:connector-curvature="0" />
    </marker>
    <marker
       inkscape:stockid="Arrow1Lend"
       orient="auto"
       refY="0"
       refX="0"
       id="marker8062"
       style="overflow:visible">
      <path
         id="path8064"
         d="M 0,0 5,-5 -12.5,0 5,5 0,0 z"
         style="fill-rule:evenodd;stroke:#000000;stroke-width:1pt"
         transform="matrix(-0.8,0,0,-0.8,-10,0)"
         inkscape:connector-curvature="0" />
    </marker>
    <marker
       inkscape:stockid="Arrow1Lend"
       orient="auto"
       refY="0"
       refX="0"
       id="marker8066"
       style="overflow:visible">
      <path
         id="path8068"
         d="M 0,0 5,-5 -12.5,0 5,5 0,0 z"
         style="fill-rule:evenodd;stroke:#000000;stroke-width:1pt"
         transform="matrix(-0.8,0,0,-0.8,-10,0)"
         inkscape:connector-curvature="0" />
    </marker>
    <marker
       inkscape:stockid="Arrow1Lend"
       orient="auto"
       refY="0"
       refX="0"
       id="marker8070"
       style="overflow:visible">
      <path
         id="path8072"
         d="M 0,0 5,-5 -12.5,0 5,5 0,0 z"
         style="fill-rule:evenodd;stroke:#000000;stroke-width:1pt"
         transform="matrix(-0.8,0,0,-0.8,-10,0)"
         inkscape:connector-curvature="0" />
    </marker>
  </defs>
  <sodipodi:namedview
     id="base"
     pagecolor="#ffffff"
     bordercolor="#666666"
     borderopacity="1.0"
     inkscape:pageopacity="0.0"
     inkscape:pageshadow="2"
     inkscape:zoom="0.35"
     inkscape:cx="375"
     inkscape:cy="634.28571"
     inkscape:document-units="px"
     inkscape:current-layer="layer1"
     showgrid="false"
     inkscape:window-width="455"
     inkscape:window-height="445"
     inkscape:window-x="0"
     inkscape:window-y="336"
     inkscape:window-maximized="0" />
  <metadata
     id="metadata8131">
    <rdf:RDF>
      <cc:Work
         rdf:about="">
        <dc:format>image/svg+xml</dc:format>
        <dc:type
           rdf:resource="http://purl.org/dc/dcmitype/StillImage" />
        <dc:title></dc:title>
      </cc:Work>
    </rdf:RDF>
  </metadata>
  <g
     inkscape:label="Layer 1"
     inkscape:groupmode="layer"
     id="layer1">
    <path
       style="fill:none;stroke:#000000;stroke-width:1px;stroke-linecap:butt;stroke-linejoin:miter;stroke-opacity:1;marker-end:url(#Arrow1Lend)"
       d="m 385.71427,520.93363 0,-380"
       id="path7621"
       inkscape:connector-curvature="0" />
    <path
       inkscape:connector-curvature="0"
       id="path7813"
       d="m 385.71427,520.93363 379.99999,0"
       style="fill:none;stroke:#000000;stroke-width:1px;stroke-linecap:butt;stroke-linejoin:miter;stroke-opacity:1;marker-end:url(#Arrow1Lend)" />
    <path
       style="fill:none;stroke:#000000;stroke-width:1px;stroke-linecap:butt;stroke-linejoin:miter;stroke-opacity:1;marker-end:url(#Arrow1Lend)"
       d="m 385.71427,520.93363 0,380"
       id="path7815"
       inkscape:connector-curvature="0" />
    <path
       style="fill:none;stroke:#000000;stroke-width:1px;stroke-linecap:butt;stroke-linejoin:miter;stroke-opacity:1;marker-end:url(#Arrow1Lend)"
       d="m 385.71427,520.93363 -379.9999729,0"
       id="path7817"
       inkscape:connector-curvature="0" />
    <path
       style="fill:#0090ff;fill-opacity:0.61960784;stroke:#000000;stroke-width:1px;stroke-linecap:butt;stroke-linejoin:miter;stroke-opacity:1"
       d="m 445.71427,460.93363 0,60 60,0 0,-60 z"
       id="path7819"
       inkscape:connector-curvature="0" />
    <path
       inkscape:connector-curvature="0"
       id="path7821"
       d="m 385.71427,460.93363 0,60 60,0 0,-60 z"
       style="fill:#3b3b99;fill-opacity:0.59215686;stroke:#000000;stroke-width:1px;stroke-linecap:butt;stroke-linejoin:miter;stroke-opacity:1" />
    <path
       style="fill:#85ff00;fill-opacity:0.62745098;stroke:#000000;stroke-width:1px;stroke-linecap:butt;stroke-linejoin:miter;stroke-opacity:1"
       d="m 385.71427,400.93363 0,60 60,0 0,-60 z"
       id="path7823"
       inkscape:connector-curvature="0" />
    <path
       inkscape:connector-curvature="0"
       id="path7825"
       d="m 565.71427,460.93363 0,60 60,0 0,-60 z"
       style="fill:#0090ff;fill-opacity:0.61960784;stroke:#000000;stroke-width:1px;stroke-linecap:butt;stroke-linejoin:miter;stroke-opacity:1" />
    <path
       style="fill:#3b3b99;fill-opacity:0.59215686;stroke:#000000;stroke-width:1px;stroke-linecap:butt;stroke-linejoin:miter;stroke-opacity:1"
       d="m 505.71427,460.93363 0,60 60,0 0,-60 z"
       id="path7827"
       inkscape:connector-curvature="0" />
    <path
       inkscape:connector-curvature="0"
       id="path7829"
       d="m 505.71427,400.93363 0,60 60,0 0,-60 z"
       style="fill:#85ff00;fill-opacity:0.62745098;stroke:#000000;stroke-width:1px;stroke-linecap:butt;stroke-linejoin:miter;stroke-opacity:1" />
    <path
       style="fill:#0090ff;fill-opacity:0.61960784;stroke:#000000;stroke-width:1px;stroke-linecap:butt;stroke-linejoin:miter;stroke-opacity:1"
       d="m 445.71427,340.93363 0,60 60,0 0,-60 z"
       id="path7831"
       inkscape:connector-curvature="0" />
    <path
       inkscape:connector-curvature="0"
       id="path7833"
       d="m 385.71427,340.93363 0,60 60,0 0,-60 z"
       style="fill:#3b3b99;fill-opacity:0.59215686;stroke:#000000;stroke-width:1px;stroke-linecap:butt;stroke-linejoin:miter;stroke-opacity:1" />
    <path
       style="fill:#85ff00;fill-opacity:0.62745098;stroke:#000000;stroke-width:1px;stroke-linecap:butt;stroke-linejoin:miter;stroke-opacity:1"
       d="m 385.71427,280.93363 0,60 60,0 0,-60 z"
       id="path7835"
       inkscape:connector-curvature="0" />
    <path
       inkscape:connector-curvature="0"
       id="path7837"
       d="m 325.71427,460.93363 0,60 60,0 0,-60 z"
       style="fill:#0090ff;fill-opacity:0.61960784;stroke:#000000;stroke-width:1px;stroke-linecap:butt;stroke-linejoin:miter;stroke-opacity:1" />
    <path
       style="fill:#3b3b99;fill-opacity:0.59215686;stroke:#000000;stroke-width:1px;stroke-linecap:butt;stroke-linejoin:miter;stroke-opacity:1"
       d="m 265.71427,460.93363 0,60 60,0 0,-60 z"
       id="path7839"
       inkscape:connector-curvature="0" />
    <path
       inkscape:connector-curvature="0"
       id="path7841"
       d="m 265.71427,400.93363 0,60 60,0 0,-60 z"
       style="fill:#85ff00;fill-opacity:0.62745098;stroke:#000000;stroke-width:1px;stroke-linecap:butt;stroke-linejoin:miter;stroke-opacity:1" />
    <path
       style="fill:#0090ff;fill-opacity:0.61960784;stroke:#000000;stroke-width:1px;stroke-linecap:butt;stroke-linejoin:miter;stroke-opacity:1"
       d="m 205.71427,460.93363 0,60 60,0 0,-60 z"
       id="path7843"
       inkscape:connector-curvature="0" />
    <path
       inkscape:connector-curvature="0"
       id="path7845"
       d="m 145.71427,460.93363 0,60 60,0 0,-60 z"
       style="fill:#3b3b99;fill-opacity:0.59215686;stroke:#000000;stroke-width:1px;stroke-linecap:butt;stroke-linejoin:miter;stroke-opacity:1" />
    <path
       style="fill:#85ff00;fill-opacity:0.62745098;stroke:#000000;stroke-width:1px;stroke-linecap:butt;stroke-linejoin:miter;stroke-opacity:1"
       d="m 145.71427,400.93363 0,60 60,0 0,-60 z"
       id="path7847"
       inkscape:connector-curvature="0" />
    <path
       inkscape:connector-curvature="0"
       id="path7849"
       d="m 205.71427,340.93363 0,60 60,0 0,-60 z"
       style="fill:#0090ff;fill-opacity:0.61960784;stroke:#000000;stroke-width:1px;stroke-linecap:butt;stroke-linejoin:miter;stroke-opacity:1" />
    <path
       style="fill:#3b3b99;fill-opacity:0.59215686;stroke:#000000;stroke-width:1px;stroke-linecap:butt;stroke-linejoin:miter;stroke-opacity:1"
       d="m 145.71427,340.93363 0,60 60,0 0,-60 z"
       id="path7851"
       inkscape:connector-curvature="0" />
    <path
       inkscape:connector-curvature="0"
       id="path7853"
       d="m 145.71427,280.93363 0,60 60,0 0,-60 z"
       style="fill:#85ff00;fill-opacity:0.62745098;stroke:#000000;stroke-width:1px;stroke-linecap:butt;stroke-linejoin:miter;stroke-opacity:1" />
    <path
       style="fill:#0090ff;fill-opacity:0.61960784;stroke:#000000;stroke-width:1px;stroke-linecap:butt;stroke-linejoin:miter;stroke-opacity:1"
       d="m 325.71427,340.93363 0,60 60,0 0,-60 z"
       id="path7855"
       inkscape:connector-curvature="0" />
    <path
       inkscape:connector-curvature="0"
       id="path7857"
       d="m 265.71427,340.93363 0,60 60,0 0,-60 z"
       style="fill:#3b3b99;fill-opacity:0.59215686;stroke:#000000;stroke-width:1px;stroke-linecap:butt;stroke-linejoin:miter;stroke-opacity:1" />
    <path
       style="fill:#85ff00;fill-opacity:0.62745098;stroke:#000000;stroke-width:1px;stroke-linecap:butt;stroke-linejoin:miter;stroke-opacity:1"
       d="m 265.71427,280.93363 0,60 60,0 0,-60 z"
       id="path7859"
       inkscape:connector-curvature="0" />
    <path
       inkscape:connector-curvature="0"
       id="path7861"
       d="m 565.71427,340.93363 0,60 60,0 0,-60 z"
       style="fill:#0090ff;fill-opacity:0.61960784;stroke:#000000;stroke-width:1px;stroke-linecap:butt;stroke-linejoin:miter;stroke-opacity:1" />
    <path
       style="fill:#3b3b99;fill-opacity:0.59215686;stroke:#000000;stroke-width:1px;stroke-linecap:butt;stroke-linejoin:miter;stroke-opacity:1"
       d="m 505.71427,340.93363 0,60 60,0 0,-60 z"
       id="path7863"
       inkscape:connector-curvature="0" />
    <path
       inkscape:connector-curvature="0"
       id="path7865"
       d="m 505.71427,280.93363 0,60 60,0 0,-60 z"
       style="fill:#85ff00;fill-opacity:0.62745098;stroke:#000000;stroke-width:1px;stroke-linecap:butt;stroke-linejoin:miter;stroke-opacity:1" />
    <path
       style="fill:#0090ff;fill-opacity:0.61960784;stroke:#000000;stroke-width:1px;stroke-linecap:butt;stroke-linejoin:miter;stroke-opacity:1"
       d="m 565.71427,580.93363 0,60 60,0 0,-60 z"
       id="path7867"
       inkscape:connector-curvature="0" />
    <path
       inkscape:connector-curvature="0"
       id="path7869"
       d="m 505.71427,580.93363 0,60 60,0 0,-60 z"
       style="fill:#3b3b99;fill-opacity:0.59215686;stroke:#000000;stroke-width:1px;stroke-linecap:butt;stroke-linejoin:miter;stroke-opacity:1" />
    <path
       style="fill:#85ff00;fill-opacity:0.62745098;stroke:#000000;stroke-width:1px;stroke-linecap:butt;stroke-linejoin:miter;stroke-opacity:1"
       d="m 505.71427,520.93363 0,60 60,0 0,-60 z"
       id="path7871"
       inkscape:connector-curvature="0" />
    <path
       inkscape:connector-curvature="0"
       id="path7879"
       d="m 445.71427,580.93363 0,60 60,0 0,-60 z"
       style="fill:#0090ff;fill-opacity:0.61960784;stroke:#000000;stroke-width:1px;stroke-linecap:butt;stroke-linejoin:miter;stroke-opacity:1" />
    <path
       style="fill:#3b3b99;fill-opacity:0.59215686;stroke:#000000;stroke-width:1px;stroke-linecap:butt;stroke-linejoin:miter;stroke-opacity:1"
       d="m 385.71427,580.93363 0,60 60,0 0,-60 z"
       id="path7881"
       inkscape:connector-curvature="0" />
    <path
       inkscape:connector-curvature="0"
       id="path7883"
       d="m 385.71427,520.93363 0,60 60,0 0,-60 z"
       style="fill:#85ff00;fill-opacity:0.62745098;stroke:#000000;stroke-width:1px;stroke-linecap:butt;stroke-linejoin:miter;stroke-opacity:1" />
    <path
       style="fill:#0090ff;fill-opacity:0.61960784;stroke:#000000;stroke-width:1px;stroke-linecap:butt;stroke-linejoin:miter;stroke-opacity:1"
       d="m 325.71427,580.93363 0,60 60,0 0,-60 z"
       id="path7885"
       inkscape:connector-curvature="0" />
    <path
       inkscape:connector-curvature="0"
       id="path7887"
       d="m 265.71427,580.93363 0,60 60,0 0,-60 z"
       style="fill:#3b3b99;fill-opacity:0.59215686;stroke:#000000;stroke-width:1px;stroke-linecap:butt;stroke-linejoin:miter;stroke-opacity:1" />
    <path
       style="fill:#85ff00;fill-opacity:0.62745098;stroke:#000000;stroke-width:1px;stroke-linecap:butt;stroke-linejoin:miter;stroke-opacity:1"
       d="m 265.71427,520.93363 0,60 60,0 0,-60 z"
       id="path7889"
       inkscape:connector-curvature="0" />
    <path
       inkscape:connector-curvature="0"
       id="path7891"
       d="m 205.71427,580.93363 0,60 60,0 0,-60 z"
       style="fill:#0090ff;fill-opacity:0.61960784;stroke:#000000;stroke-width:1px;stroke-linecap:butt;stroke-linejoin:miter;stroke-opacity:1" />
    <path
       style="fill:#3b3b99;fill-opacity:0.59215686;stroke:#000000;stroke-width:1px;stroke-linecap:butt;stroke-linejoin:miter;stroke-opacity:1"
       d="m 145.71427,580.93363 0,60 60,0 0,-60 z"
       id="path7893"
       inkscape:connector-curvature="0" />
    <path
       inkscape:connector-curvature="0"
       id="path7895"
       d="m 145.71427,520.93363 0,60 60,0 0,-60 z"
       style="fill:#85ff00;fill-opacity:0.62745098;stroke:#000000;stroke-width:1px;stroke-linecap:butt;stroke-linejoin:miter;stroke-opacity:1" />
    <path
       style="fill:#0090ff;fill-opacity:0.61960784;stroke:#000000;stroke-width:1px;stroke-linecap:butt;stroke-linejoin:miter;stroke-opacity:1"
       d="m 205.71427,700.93363 0,60 60,0 0,-60 z"
       id="path7897"
       inkscape:connector-curvature="0" />
    <path
       inkscape:connector-curvature="0"
       id="path7899"
       d="m 145.71427,700.93363 0,60 60,0 0,-60 z"
       style="fill:#3b3b99;fill-opacity:0.59215686;stroke:#000000;stroke-width:1px;stroke-linecap:butt;stroke-linejoin:miter;stroke-opacity:1" />
    <path
       style="fill:#85ff00;fill-opacity:0.62745098;stroke:#000000;stroke-width:1px;stroke-linecap:butt;stroke-linejoin:miter;stroke-opacity:1"
       d="m 145.71427,640.93363 0,60 60,0 0,-60 z"
       id="path7901"
       inkscape:connector-curvature="0" />
    <path
       inkscape:connector-curvature="0"
       id="path7903"
       d="m 325.71427,700.93363 0,60 60,0 0,-60 z"
       style="fill:#0090ff;fill-opacity:0.61960784;stroke:#000000;stroke-width:1px;stroke-linecap:butt;stroke-linejoin:miter;stroke-opacity:1" />
    <path
       style="fill:#3b3b99;fill-opacity:0.59215686;stroke:#000000;stroke-width:1px;stroke-linecap:butt;stroke-linejoin:miter;stroke-opacity:1"
       d="m 265.71427,700.93363 0,60 60,0 0,-60 z"
       id="path7905"
       inkscape:connector-curvature="0" />
    <path
       inkscape:connector-curvature="0"
       id="path7907"
       d="m 265.71427,640.93363 0,60 60,0 0,-60 z"
       style="fill:#85ff00;fill-opacity:0.62745098;stroke:#000000;stroke-width:1px;stroke-linecap:butt;stroke-linejoin:miter;stroke-opacity:1" />
    <path
       style="fill:#0090ff;fill-opacity:0.61960784;stroke:#000000;stroke-width:1px;stroke-linecap:butt;stroke-linejoin:miter;stroke-opacity:1"
       d="m 445.71427,700.93363 0,60 60,0 0,-60 z"
       id="path7909"
       inkscape:connector-curvature="0" />
    <path
       inkscape:connector-curvature="0"
       id="path7911"
       d="m 385.71427,700.93363 0,60 60,0 0,-60 z"
       style="fill:#3b3b99;fill-opacity:0.59215686;stroke:#000000;stroke-width:1px;stroke-linecap:butt;stroke-linejoin:miter;stroke-opacity:1" />
    <path
       style="fill:#85ff00;fill-opacity:0.62745098;stroke:#000000;stroke-width:1px;stroke-linecap:butt;stroke-linejoin:miter;stroke-opacity:1"
       d="m 385.71427,640.93363 0,60 60,0 0,-60 z"
       id="path7913"
       inkscape:connector-curvature="0" />
    <path
       inkscape:connector-curvature="0"
       id="path7915"
       d="m 565.71427,700.93363 0,60 60,0 0,-60 z"
       style="fill:#0090ff;fill-opacity:0.61960784;stroke:#000000;stroke-width:1px;stroke-linecap:butt;stroke-linejoin:miter;stroke-opacity:1" />
    <path
       style="fill:#3b3b99;fill-opacity:0.59215686;stroke:#000000;stroke-width:1px;stroke-linecap:butt;stroke-linejoin:miter;stroke-opacity:1"
       d="m 505.71427,700.93363 0,60 60,0 0,-60 z"
       id="path7917"
       inkscape:connector-curvature="0" />
    <path
       inkscape:connector-curvature="0"
       id="path7919"
       d="m 505.71427,640.93363 0,60 60,0 0,-60 z"
       style="fill:#85ff00;fill-opacity:0.62745098;stroke:#000000;stroke-width:1px;stroke-linecap:butt;stroke-linejoin:miter;stroke-opacity:1" />
  </g>
</svg>
